name Walk4.mot
datacolumns 19
datarows 25
range 0.98500000 1.00900000
endheader

                time	   L_ground_force_vx	   L_ground_force_vy	   L_ground_force_vz	   L_ground_force_px	   L_ground_force_py	   L_ground_force_pz	   R_ground_force_vx	   R_ground_force_vy	   R_ground_force_vz	   R_ground_force_px	   R_ground_force_py	   R_ground_force_pz	   L_ground_torque_x	   L_ground_torque_y	   L_ground_torque_z	   R_ground_torque_x	   R_ground_torque_y	   R_ground_torque_z	
          0.98500000	          0.00000000	          0.00000000	          0.00000000	          0.00000000	          0.00000000	          0.00000000	          0.00000000	          0.00000000	          0.00000000	          0.00000000	          0.00000000	          0.00000000	          0.00000000	          0.00000000	          0.00000000	          0.00000000	          0.00000000	          0.00000000	
          0.98600000	          0.00000000	          0.00000000	          0.00000000	          0.00000000	          0.00000000	          0.00000000	          0.00000000	          0.00000000	          0.00000000	          0.00000000	          0.00000000	          0.00000000	          0.00000000	          0.00000000	          0.00000000	          0.00000000	          0.00000000	          0.00000000	
          0.98700000	          0.00000000	          0.00000000	          0.00000000	          0.00000000	          0.00000000	          0.00000000	         -0.06100718	          9.34028554	         -2.01142141	         -0.51497098	          0.00000000	         -0.06698932	          0.00000000	          0.00000000	          0.00000000	          0.00000000	          0.01078677	          0.00000000	
          0.98800000	          0.00000000	          0.00000000	          0.00000000	          0.00000000	          0.00000000	          0.00000000	         -0.14169032	         18.23728467	         -3.34577955	         -0.51298707	          0.00000000	         -0.07051725	          0.00000000	          0.00000000	          0.00000000	          0.00000000	          0.01694509	          0.00000000	
          0.98900000	          0.00000000	          0.00000000	          0.00000000	          0.00000000	          0.00000000	          0.00000000	         -0.26261298	         30.71580839	         -4.81437740	         -0.51106182	          0.00000000	         -0.07347055	          0.00000000	          0.00000000	          0.00000000	          0.00000000	          0.02531721	          0.00000000	
          0.99000000	          0.00000000	          0.00000000	          0.00000000	          0.00000000	          0.00000000	          0.00000000	         -0.41743130	         47.47225540	         -6.30486157	         -0.50924308	          0.00000000	         -0.07575652	          0.00000000	          0.00000000	          0.00000000	          0.00000000	          0.03340657	          0.00000000	
          0.99100000	          0.00000000	          0.00000000	          0.00000000	          0.00000000	          0.00000000	          0.00000000	         -0.58658208	         69.18203579	         -7.75170381	         -0.50764835	          0.00000000	         -0.07741227	          0.00000000	          0.00000000	          0.00000000	          0.00000000	          0.03827005	          0.00000000	
          0.99200000	          0.00000000	          0.00000000	          0.00000000	          0.00000000	          0.00000000	          0.00000000	         -0.74040372	         96.06124581	         -9.13353422	         -0.50629199	          0.00000000	         -0.07860588	          0.00000000	          0.00000000	          0.00000000	          0.00000000	          0.04006857	          0.00000000	
          0.99300000	          0.00000000	          0.00000000	          0.00000000	          0.00000000	          0.00000000	          0.00000000	         -0.85816164	        127.35216253	        -10.44814973	         -0.50515863	          0.00000000	         -0.07941109	          0.00000000	          0.00000000	          0.00000000	          0.00000000	          0.04242133	          0.00000000	
          0.99400000	          0.00000000	          0.00000000	          0.00000000	          0.00000000	          0.00000000	          0.00000000	         -0.96621760	        161.13325192	        -11.69684985	         -0.50427631	          0.00000000	         -0.07980474	          0.00000000	          0.00000000	          0.00000000	          0.00000000	          0.04797861	          0.00000000	
          0.99500000	          0.00000000	          0.00000000	          0.00000000	          0.00000000	          0.00000000	          0.00000000	         -1.16480556	        194.63196692	        -12.88883952	         -0.50364991	          0.00000000	         -0.07984595	          0.00000000	          0.00000000	          0.00000000	          0.00000000	          0.05531887	          0.00000000	
          0.99600000	          0.00000000	          0.00000000	          0.00000000	          0.00000000	          0.00000000	          0.00000000	         -1.60920274	        224.92985021	        -14.05521454	         -0.50322215	          0.00000000	         -0.07969911	          0.00000000	          0.00000000	          0.00000000	          0.00000000	          0.06158154	          0.00000000	
          0.99700000	          0.00000000	          0.00000000	          0.00000000	          0.00000000	          0.00000000	          0.00000000	         -2.46191983	        249.72856144	        -15.24590127	         -0.50291354	          0.00000000	         -0.07952317	          0.00000000	          0.00000000	          0.00000000	          0.00000000	          0.06715693	          0.00000000	
          0.99800000	          0.00000000	          0.00000000	          0.00000000	          0.00000000	          0.00000000	          0.00000000	         -3.84895683	        267.90241146	        -16.50299088	         -0.50264706	          0.00000000	         -0.07941517	          0.00000000	          0.00000000	          0.00000000	          0.00000000	          0.07701457	          0.00000000	
          0.99900000	          0.00000000	          0.00000000	          0.00000000	          0.00000000	          0.00000000	          0.00000000	         -5.82206876	        279.66329872	        -17.83496188	         -0.50235412	          0.00000000	         -0.07941108	          0.00000000	          0.00000000	          0.00000000	          0.00000000	          0.09812684	          0.00000000	
          1.00000000	          0.00000000	          0.00000000	          0.00000000	          0.00000000	          0.00000000	          0.00000000	         -8.33716149	        286.28412386	        -19.21624299	         -0.50200818	          0.00000000	         -0.07948250	          0.00000000	          0.00000000	          0.00000000	          0.00000000	          0.13493817	          0.00000000	
          1.00100000	          0.00000000	          0.00000000	          0.00000000	          0.00000000	          0.00000000	          0.00000000	        -11.27287621	        289.57249708	        -20.59944655	         -0.50164013	          0.00000000	         -0.07954336	          0.00000000	          0.00000000	          0.00000000	          0.00000000	          0.18658377	          0.00000000	
          1.00200000	          0.00000000	          0.00000000	          0.00000000	          0.00000000	          0.00000000	          0.00000000	        -14.48099329	        291.36371787	        -21.92710831	         -0.50128316	          0.00000000	         -0.07950361	          0.00000000	          0.00000000	          0.00000000	          0.00000000	          0.24720915	          0.00000000	
          1.00300000	          0.00000000	          0.00000000	          0.00000000	          0.00000000	          0.00000000	          0.00000000	        -17.83302493	        293.16242982	        -23.15294727	         -0.50093168	          0.00000000	         -0.07935376	          0.00000000	          0.00000000	          0.00000000	          0.00000000	          0.30813622	          0.00000000	
          1.00400000	          0.00000000	          0.00000000	          0.00000000	          0.00000000	          0.00000000	          0.00000000	        -21.23924018	        295.98074370	        -24.26117047	         -0.50057668	          0.00000000	         -0.07918456	          0.00000000	          0.00000000	          0.00000000	          0.00000000	          0.36326841	          0.00000000	
          1.00500000	          0.00000000	          0.00000000	          0.00000000	          0.00000000	          0.00000000	          0.00000000	        -24.65067813	        300.33089344	        -25.26247475	         -0.50022119	          0.00000000	         -0.07910095	          0.00000000	          0.00000000	          0.00000000	          0.00000000	          0.41372679	          0.00000000	
          1.00600000	          0.00000000	          0.00000000	          0.00000000	          0.00000000	          0.00000000	          0.00000000	        -28.05889033	        306.27126174	        -26.18019912	         -0.49984530	          0.00000000	         -0.07914944	          0.00000000	          0.00000000	          0.00000000	          0.00000000	          0.46283329	          0.00000000	
          1.00700000	          0.00000000	          0.00000000	          0.00000000	          0.00000000	          0.00000000	          0.00000000	        -31.48030902	        313.50026459	        -27.04524865	         -0.49941531	          0.00000000	         -0.07931890	          0.00000000	          0.00000000	          0.00000000	          0.00000000	          0.50721131	          0.00000000	
          1.00800000	          0.00000000	          0.00000000	          0.00000000	          0.00000000	          0.00000000	          0.00000000	        -34.92901662	        321.52222140	        -27.89029059	         -0.49893219	          0.00000000	         -0.07955278	          0.00000000	          0.00000000	          0.00000000	          0.00000000	          0.54117093	          0.00000000	
          1.00900000	          0.00000000	          0.00000000	          0.00000000	          0.00000000	          0.00000000	          0.00000000	        -38.41096760	        329.82529726	        -28.73290186	         -0.49842691	          0.00000000	         -0.07976703	          0.00000000	          0.00000000	          0.00000000	          0.00000000	          0.56789049	          0.00000000	
